<svg version="1.2"
   xmlns="http://www.w3.org/2000/svg" viewBox="0 0 763 752">
   <defs>
      <linearGradient id="P" gradientUnits="userSpaceOnUse"/>
      <linearGradient id="g1" x2="1" href="#P" gradientTransform="matrix(504.891,523.202,-523.202,504.891,503.773,-265.966)">
         <stop stop-color="#ce9946"/>
         <stop offset=".54" stop-color="#f9f1bb"/>
         <stop offset="1" stop-color="#ce9946"/>
      </linearGradient>
      <linearGradient id="g2" x2="1" href="#P" gradientTransform="matrix(504.891,523.203,-523.203,504.891,497.918,-251.566)">
         <stop stop-color="#ce9946"/>
         <stop offset=".54" stop-color="#f9f1bb"/>
         <stop offset="1" stop-color="#ce9946"/>
      </linearGradient>
      <linearGradient id="g3" x2="1" href="#P" gradientTransform="matrix(504.891,523.203,-523.203,504.891,496.592,-263.571)">
         <stop stop-color="#ce9946"/>
         <stop offset=".54" stop-color="#f9f1bb"/>
         <stop offset="1" stop-color="#ce9946"/>
      </linearGradient>
      <linearGradient id="g4" x2="1" href="#P" gradientTransform="matrix(504.89,523.202,-523.202,504.89,494.221,-256.909)">
         <stop stop-color="#ce9946"/>
         <stop offset=".54" stop-color="#f9f1bb"/>
         <stop offset="1" stop-color="#ce9946"/>
      </linearGradient>
   </defs>
   <style>.a{fill:url(#g1)}.b{fill:url(#g2)}.c{fill:url(#g3)}.d{fill:url(#g4)}</style>
   <path fill-rule="evenodd" class="a" d="m392.6 738.8c-98.5 0-191.1-38.3-260.8-108-69.7-69.7-108-162.3-108-260.8 0-98.6 38.3-191.2 108-260.9 69.7-69.6 162.3-108 260.8-108 98.6 0 191.2 38.4 260.9 108 69.6 69.7 108 162.3 108 260.9 0 98.5-38.4 191.1-108 260.8-69.7 69.7-162.3 108-260.9 108zm0-736.6c-98.2 0-190.6 38.2-260 107.7-69.5 69.5-107.7 161.8-107.7 260.1 0 98.2 38.2 190.6 107.7 260 69.4 69.5 161.8 107.7 260 107.7 98.3 0 190.6-38.2 260.1-107.7 69.4-69.4 107.7-161.8 107.7-260 0-98.3-38.3-190.6-107.7-260.1-69.5-69.5-161.8-107.7-260.1-107.7z"/>
   <path fill-rule="evenodd" class="b" d="m370.7 739.9c-98.8 0-191.7-38.5-261.6-108.3-69.9-69.9-108.3-162.8-108.3-261.6 0-98.9 38.4-191.8 108.3-261.6 69.9-69.9 162.8-108.4 261.6-108.4 98.8 0 191.7 38.5 261.6 108.4 69.9 69.8 108.4 162.7 108.4 261.6 0 98.8-38.5 191.7-108.4 261.6-69.9 69.8-162.8 108.3-261.6 108.3zm0-736.6c-97.9 0-190 38.1-259.3 107.4-69.2 69.2-107.4 161.3-107.4 259.3 0 97.9 38.2 190 107.4 259.2 69.3 69.3 161.4 107.4 259.3 107.4 98 0 190-38.1 259.3-107.4 69.3-69.2 107.4-161.3 107.4-259.2 0-98-38.1-190.1-107.4-259.3-69.3-69.3-161.3-107.4-259.3-107.4z"/>
   <path fill-rule="evenodd" class="c" d="m392.6 750.3c-98.7 0-191.4-38.4-261.2-108.2-69.8-69.7-108.2-162.5-108.2-261.2 0-98.7 38.4-191.4 108.2-261.2 69.8-69.8 162.5-108.2 261.2-108.2 98.7 0 191.5 38.4 261.2 108.2 69.8 69.8 108.2 162.5 108.2 261.2 0 98.7-38.4 191.5-108.2 261.2-69.7 69.8-162.5 108.2-261.2 108.2zm0-736.6c-98.1 0-190.3 38.2-259.6 107.5-69.4 69.4-107.6 161.6-107.6 259.7 0 98.1 38.2 190.3 107.6 259.7 69.3 69.3 161.5 107.5 259.6 107.5 98.1 0 190.3-38.2 259.7-107.5 69.3-69.4 107.5-161.6 107.5-259.7 0-98.1-38.2-190.3-107.5-259.7-69.4-69.3-161.6-107.5-259.7-107.5z"/>
   <path fill-rule="evenodd" class="d" d="m381.7 751.4c-99 0-192-38.5-262-108.5-70-70-108.5-163-108.5-262 0-99 38.5-192 108.5-262 70-70 163-108.5 262-108.5 98.9 0 192 38.5 262 108.5 69.9 70 108.5 163 108.5 262 0 99-38.6 192-108.5 262-70 70-163.1 108.5-262 108.5zm0-736.6c-97.8 0-189.8 38.1-258.9 107.2-69.2 69.2-107.3 161.1-107.3 258.9 0 97.8 38.1 189.8 107.3 258.9 69.1 69.2 161.1 107.2 258.9 107.2 97.8 0 189.7-38 258.9-107.2 69.1-69.1 107.2-161.1 107.2-258.9 0-97.8-38.1-189.7-107.2-258.9-69.2-69.1-161.1-107.2-258.9-107.2z"/>
</svg>